<mxfile host="app.diagrams.net" modified="2022-04-24T19:50:34.453Z" agent="5.0 (Macintosh)" etag="X7RRCgPZdCOg0EuBuERD" version="17.1.3" type="github">
  <diagram id="Ahvqe3T4xvjHlLuatshq" name="Page-1">
    <mxGraphModel dx="1189" dy="1054" grid="1" gridSize="10" guides="1" tooltips="1" connect="1" arrows="1" fold="1" page="1" pageScale="1" pageWidth="850" pageHeight="1100" math="0" shadow="0">
      <root>
        <mxCell id="0" />
        <mxCell id="1" parent="0" />
        <mxCell id="ijOpEMZF0gk_29399_hm-8" value="" style="edgeStyle=orthogonalEdgeStyle;rounded=0;orthogonalLoop=1;jettySize=auto;html=1;strokeWidth=2;" edge="1" parent="1" source="ijOpEMZF0gk_29399_hm-1" target="ijOpEMZF0gk_29399_hm-2">
          <mxGeometry relative="1" as="geometry" />
        </mxCell>
        <mxCell id="ijOpEMZF0gk_29399_hm-1" value="Find areas to work" style="rounded=1;whiteSpace=wrap;html=1;fillColor=#f5f5f5;fontColor=#333333;strokeColor=#666666;" vertex="1" parent="1">
          <mxGeometry x="40" y="40" width="120" height="60" as="geometry" />
        </mxCell>
        <mxCell id="ijOpEMZF0gk_29399_hm-9" style="edgeStyle=orthogonalEdgeStyle;rounded=0;orthogonalLoop=1;jettySize=auto;html=1;entryX=0.5;entryY=0;entryDx=0;entryDy=0;strokeWidth=2;" edge="1" parent="1" source="ijOpEMZF0gk_29399_hm-2" target="ijOpEMZF0gk_29399_hm-7">
          <mxGeometry relative="1" as="geometry">
            <mxPoint x="430" y="70" as="targetPoint" />
          </mxGeometry>
        </mxCell>
        <mxCell id="ijOpEMZF0gk_29399_hm-2" value="Find projects for areas" style="rounded=1;whiteSpace=wrap;html=1;fillColor=#f9f7ed;strokeColor=#36393d;" vertex="1" parent="1">
          <mxGeometry x="240" y="40" width="120" height="60" as="geometry" />
        </mxCell>
        <mxCell id="ijOpEMZF0gk_29399_hm-11" value="" style="edgeStyle=orthogonalEdgeStyle;rounded=0;orthogonalLoop=1;jettySize=auto;html=1;strokeWidth=2;" edge="1" parent="1" source="ijOpEMZF0gk_29399_hm-4" target="ijOpEMZF0gk_29399_hm-5">
          <mxGeometry relative="1" as="geometry" />
        </mxCell>
        <mxCell id="ijOpEMZF0gk_29399_hm-4" value="&amp;nbsp;Start chosen projects" style="rounded=1;whiteSpace=wrap;html=1;fillColor=#fff2cc;strokeColor=#d6b656;" vertex="1" parent="1">
          <mxGeometry x="240" y="160" width="120" height="60" as="geometry" />
        </mxCell>
        <mxCell id="ijOpEMZF0gk_29399_hm-12" value="" style="edgeStyle=orthogonalEdgeStyle;rounded=0;orthogonalLoop=1;jettySize=auto;html=1;strokeWidth=2;" edge="1" parent="1" source="ijOpEMZF0gk_29399_hm-5" target="ijOpEMZF0gk_29399_hm-1">
          <mxGeometry relative="1" as="geometry" />
        </mxCell>
        <mxCell id="ijOpEMZF0gk_29399_hm-5" value="Measure, track and refine projects" style="rounded=1;whiteSpace=wrap;html=1;fillColor=#dae8fc;strokeColor=#6c8ebf;" vertex="1" parent="1">
          <mxGeometry x="40" y="160" width="120" height="60" as="geometry" />
        </mxCell>
        <mxCell id="ijOpEMZF0gk_29399_hm-10" style="edgeStyle=orthogonalEdgeStyle;rounded=0;orthogonalLoop=1;jettySize=auto;html=1;entryX=1;entryY=0.5;entryDx=0;entryDy=0;strokeWidth=2;" edge="1" parent="1" source="ijOpEMZF0gk_29399_hm-7" target="ijOpEMZF0gk_29399_hm-4">
          <mxGeometry relative="1" as="geometry">
            <Array as="points">
              <mxPoint x="500" y="190" />
            </Array>
          </mxGeometry>
        </mxCell>
        <mxCell id="ijOpEMZF0gk_29399_hm-7" value="Analyze projects" style="rounded=1;whiteSpace=wrap;html=1;fillColor=#e1d5e7;strokeColor=#9673a6;" vertex="1" parent="1">
          <mxGeometry x="440" y="100" width="120" height="60" as="geometry" />
        </mxCell>
      </root>
    </mxGraphModel>
  </diagram>
</mxfile>
